<svg xmlns="http://www.w3.org/2000/svg" viewBox="0 0 48 48" fill="none">
  <path d="M24 41C23.574 41 23.148 40.864 22.79 40.592C14.72 34.724 8 28.972 8 20.682C8 15.45 12.112 11 17.206 11C20.444 11 22.756 12.614 24 14.5C25.244 12.614 27.556 11 30.794 11C35.888 11 40 15.45 40 20.682C40 28.972 33.28 34.724 25.21 40.592C24.852 40.864 24.426 41 24 41Z" fill="#0E8DBA"/>
  <path d="M14 19C14 17.3431 15.3431 16 17 16" stroke="#7AE5FF" stroke-width="3" stroke-linecap="round"/>
  <circle cx="18.5" cy="14.5" r="1.5" fill="#7AE5FF"/>
</svg>